name ./resultDataOpenSim/trcMotMarkerGrf/sub09/grf-02-02.mot
datacolumns 19
datarows 27
range 0.96800000 1.07200000
endheader

                time	     ground_force_vx	     ground_force_vy	     ground_force_vz	     ground_force_px	     ground_force_py	     ground_force_pz	   l_ground_force_vx	   l_ground_force_vy	   l_ground_force_vz	   l_ground_force_px	   l_ground_force_py	   l_ground_force_pz	     ground_torque_x	     ground_torque_y	     ground_torque_z	   l_ground_torque_x	   l_ground_torque_y	   l_ground_torque_z	
          0.96800000	          0.00000000	          0.00000000	          0.00000000	          0.00000000	          0.00000000	          0.00000000	        -11.56553729	        460.78146285	         20.76670978	          0.13083990	         -0.02500000	         -0.02246443	          0.00000000	          0.00000000	          0.00000000	          0.00000000	         -1.03752231	          0.00000000	
          0.97200000	          0.00000000	          0.00000000	          0.00000000	          0.00000000	          0.00000000	          0.00000000	         -9.82149958	        467.61878625	         21.53642968	          0.13123978	         -0.02500000	         -0.02231800	          0.00000000	          0.00000000	          0.00000000	          0.00000000	         -1.13700479	          0.00000000	
          0.97600000	          0.00000000	          0.00000000	          0.00000000	          0.00000000	          0.00000000	          0.00000000	         -7.89006826	        474.91102104	         22.20065178	          0.13155538	         -0.02500000	         -0.02215106	          0.00000000	          0.00000000	          0.00000000	          0.00000000	         -1.25315948	          0.00000000	
          0.98000000	          0.00000000	          0.00000000	          0.00000000	          0.00000000	          0.00000000	          0.00000000	         -5.74789388	        482.65468883	         22.77894490	          0.13176750	         -0.02500000	         -0.02196445	          0.00000000	          0.00000000	          0.00000000	          0.00000000	         -1.38807738	          0.00000000	
          0.98400000	          0.00000000	          0.00000000	          0.00000000	          0.00000000	          0.00000000	          0.00000000	         -3.37727900	        490.79093385	         23.26434897	          0.13189979	         -0.02500000	         -0.02175659	          0.00000000	          0.00000000	          0.00000000	          0.00000000	         -1.54486413	          0.00000000	
          0.98800000	          0.00000000	          0.00000000	          0.00000000	          0.00000000	          0.00000000	          0.00000000	         -0.77765547	        499.18364553	         23.62117240	          0.13201514	         -0.02500000	         -0.02153478	          0.00000000	          0.00000000	          0.00000000	          0.00000000	         -1.72779303	          0.00000000	
          0.99200000	          0.00000000	          0.00000000	          0.00000000	          0.00000000	          0.00000000	          0.00000000	          2.03912477	        507.65155864	         23.80731042	          0.13219630	         -0.02500000	         -0.02131464	          0.00000000	          0.00000000	          0.00000000	          0.00000000	         -1.94161012	          0.00000000	
          0.99600000	          0.00000000	          0.00000000	          0.00000000	          0.00000000	          0.00000000	          0.00000000	          5.07319843	        516.03147023	         23.79705049	          0.13250843	         -0.02500000	         -0.02109811	          0.00000000	          0.00000000	          0.00000000	          0.00000000	         -2.19018096	          0.00000000	
          1.00000000	          0.00000000	          0.00000000	          0.00000000	          0.00000000	          0.00000000	          0.00000000	          8.33724367	        524.21524692	         23.59348044	          0.13295115	         -0.02500000	         -0.02088424	          0.00000000	          0.00000000	          0.00000000	          0.00000000	         -2.47502080	          0.00000000	
          1.00400000	          0.00000000	          0.00000000	          0.00000000	          0.00000000	          0.00000000	          0.00000000	         11.84863957	        532.17272909	         23.23183811	          0.13346318	         -0.02500000	         -0.02068471	          0.00000000	          0.00000000	          0.00000000	          0.00000000	         -2.79427107	          0.00000000	
          1.00800000	          0.00000000	          0.00000000	          0.00000000	          0.00000000	          0.00000000	          0.00000000	         15.63865232	        539.96535067	         22.77035184	          0.13399239	         -0.02500000	         -0.02049540	          0.00000000	          0.00000000	          0.00000000	          0.00000000	         -3.14246441	          0.00000000	
          1.01200000	          0.00000000	          0.00000000	          0.00000000	          0.00000000	          0.00000000	          0.00000000	         19.74522126	        547.71071778	         22.27553580	          0.13452045	         -0.02500000	         -0.02030120	          0.00000000	          0.00000000	          0.00000000	          0.00000000	         -3.51116103	          0.00000000	
          1.01600000	          0.00000000	          0.00000000	          0.00000000	          0.00000000	          0.00000000	          0.00000000	         24.18679530	        555.51097942	         21.81208038	          0.13501970	         -0.02500000	         -0.02009298	          0.00000000	          0.00000000	          0.00000000	          0.00000000	         -3.89028804	          0.00000000	
          1.02000000	          0.00000000	          0.00000000	          0.00000000	          0.00000000	          0.00000000	          0.00000000	         28.94910039	        563.41625280	         21.43169192	          0.13545955	         -0.02500000	         -0.01988869	          0.00000000	          0.00000000	          0.00000000	          0.00000000	         -4.26978660	          0.00000000	
          1.02400000	          0.00000000	          0.00000000	          0.00000000	          0.00000000	          0.00000000	          0.00000000	         33.98841522	        571.43485933	         21.15932787	          0.13582485	         -0.02500000	         -0.01971127	          0.00000000	          0.00000000	          0.00000000	          0.00000000	         -4.64103383	          0.00000000	
          1.02800000	          0.00000000	          0.00000000	          0.00000000	          0.00000000	          0.00000000	          0.00000000	         39.24861245	        579.54035647	         20.99218672	          0.13610972	         -0.02500000	         -0.01957321	          0.00000000	          0.00000000	          0.00000000	          0.00000000	         -4.99754571	          0.00000000	
          1.03200000	          0.00000000	          0.00000000	          0.00000000	          0.00000000	          0.00000000	          0.00000000	         44.68154240	        587.67260154	         20.91601940	          0.13630953	         -0.02500000	         -0.01947510	          0.00000000	          0.00000000	          0.00000000	          0.00000000	         -5.33477601	          0.00000000	
          1.03600000	          0.00000000	          0.00000000	          0.00000000	          0.00000000	          0.00000000	          0.00000000	         50.25599039	        595.75257296	         20.92312558	          0.13648028	         -0.02500000	         -0.01940117	          0.00000000	          0.00000000	          0.00000000	          0.00000000	         -5.64928679	          0.00000000	
          1.04000000	          0.00000000	          0.00000000	          0.00000000	          0.00000000	          0.00000000	          0.00000000	         55.95518510	        603.70705338	         21.02264194	          0.13671350	         -0.02500000	         -0.01932357	          0.00000000	          0.00000000	          0.00000000	          0.00000000	         -5.93785870	          0.00000000	
          1.04400000	          0.00000000	          0.00000000	          0.00000000	          0.00000000	          0.00000000	          0.00000000	         61.76181072	        611.49873307	         21.24343213	          0.13705544	         -0.02500000	         -0.01922086	          0.00000000	          0.00000000	          0.00000000	          0.00000000	         -6.19704310	          0.00000000	
          1.04800000	          0.00000000	          0.00000000	          0.00000000	          0.00000000	          0.00000000	          0.00000000	         67.63872271	        619.14442481	         21.62323790	          0.13750475	         -0.02500000	         -0.01907797	          0.00000000	          0.00000000	          0.00000000	          0.00000000	         -6.42331251	          0.00000000	
          1.05200000	          0.00000000	          0.00000000	          0.00000000	          0.00000000	          0.00000000	          0.00000000	         73.52147828	        626.71086932	         22.18103189	          0.13804159	         -0.02500000	         -0.01889194	          0.00000000	          0.00000000	          0.00000000	          0.00000000	         -6.61356329	          0.00000000	
          1.05600000	          0.00000000	          0.00000000	          0.00000000	          0.00000000	          0.00000000	          0.00000000	         79.32494090	        634.30613428	         22.89112690	          0.13862618	         -0.02500000	         -0.01868455	          0.00000000	          0.00000000	          0.00000000	          0.00000000	         -6.76552694	          0.00000000	
          1.06000000	          0.00000000	          0.00000000	          0.00000000	          0.00000000	          0.00000000	          0.00000000	         84.95624870	        642.06962886	         23.68842951	          0.13919928	         -0.02500000	         -0.01849021	          0.00000000	          0.00000000	          0.00000000	          0.00000000	         -6.87780018	          0.00000000	
          1.06400000	          0.00000000	          0.00000000	          0.00000000	          0.00000000	          0.00000000	          0.00000000	         90.32389358	        650.13672124	         24.50649841	          0.13970637	         -0.02500000	         -0.01833077	          0.00000000	          0.00000000	          0.00000000	          0.00000000	         -6.94958121	          0.00000000	
          1.06800000	          0.00000000	          0.00000000	          0.00000000	          0.00000000	          0.00000000	          0.00000000	         95.34517168	        658.58273882	         25.31104803	          0.14011083	         -0.02500000	         -0.01821316	          0.00000000	          0.00000000	          0.00000000	          0.00000000	         -6.98047673	          0.00000000	
          1.07200000	          0.00000000	          0.00000000	          0.00000000	          0.00000000	          0.00000000	          0.00000000	         99.96035614	        667.38959102	         26.09988453	          0.14039099	         -0.02500000	         -0.01813732	          0.00000000	          0.00000000	          0.00000000	          0.00000000	         -6.97068984	          0.00000000	
